<?xml version="1.0" encoding="UTF-8"?>
<!DOCTYPE svg PUBLIC "-//W3C//DTD SVG 1.1//EN" "http://www.w3.org/Graphics/SVG/1.1/DTD/svg11.dtd">
<!-- Creator: CorelDRAW -->
<svg xmlns="http://www.w3.org/2000/svg" xml:space="preserve" width="38.442mm" height="24.5288mm" version="1.1" style="shape-rendering:geometricPrecision; text-rendering:geometricPrecision; image-rendering:optimizeQuality; fill-rule:evenodd; clip-rule:evenodd"
viewBox="0 0 1450.76 925.69"
 xmlns:xlink="http://www.w3.org/1999/xlink"
 xmlns:xodm="http://www.corel.com/coreldraw/odm/2003">
 <defs>
  <style type="text/css">
   <![CDATA[
    .fil0 {fill:#FEFEFE;fill-rule:nonzero}
    .fil1 {fill:#E57C56;fill-rule:nonzero}
    .fil2 {fill:white;fill-rule:nonzero}
   ]]>
  </style>
 </defs>
 <g id="Capa_x0020_1">
  <metadata id="CorelCorpID_0Corel-Layer"/>
  <g id="_3040065844368">
   <path class="fil0" d="M1023.2 210.2c47.95,36.85 78.9,94.9 78.9,160.15 0,111.7 -90.62,202.33 -202.33,202.33 -75.29,0 -140.92,-41.11 -175.75,-102.15 -10.15,48.75 -26.91,95.7 -48.84,140.53 58.75,55 137.78,88.65 224.59,88.65 181.87,0 329.35,-147.48 329.35,-329.35 0,-58.19 -15.11,-112.83 -41.66,-160.15l-164.26 0z"/>
   <path class="fil0" d="M1450.76 104.64l-126.45 -104.64 0 41.13 -424.02 0 -0.03 0 -0.03 0 -0.03 0 -0.42 -0.02c-91.24,0 -173.79,37.16 -233.41,97.14 26.62,39.51 46.43,83.97 57.79,131.71 34.86,-60.82 100.42,-101.83 175.61,-101.83 0.01,0 0.02,0 0.03,0l0 0.02 0.5 0 12.01 0 411.99 0 0 41.14 126.45 -104.65z"/>
   <path class="fil1" d="M685.4 363.8c0,-189.27 -153.43,-342.7 -342.7,-342.7 -189.27,0 -342.7,153.43 -342.7,342.7 0,193.84 162.06,353.93 363.74,341.64 -13.59,65.74 -47.21,130.43 -79.82,181.08 -14.89,23.12 12.36,49.98 35.21,34.68 191.85,-128.44 366.27,-329.27 366.27,-557.4z"/>
   <path class="fil2" d="M308.38 351.47c0,-48.57 -39.38,-87.95 -87.95,-87.95 -48.58,0 -87.96,39.38 -87.96,87.95 0,49.75 41.59,90.84 93.36,87.68 -3.49,16.87 -12.12,33.48 -20.49,46.48 -3.82,5.93 3.17,12.83 9.04,8.9 49.24,-32.97 94,-84.51 94,-143.06z"/>
   <path class="fil2" d="M544.56 351.47c0,-48.57 -39.38,-87.95 -87.95,-87.95 -48.57,0 -87.95,39.38 -87.95,87.95 0,49.75 41.59,90.84 93.35,87.68 -3.49,16.87 -12.11,33.48 -20.48,46.48 -3.82,5.93 3.17,12.83 9.03,8.9 49.24,-32.97 94,-84.51 94,-143.06z"/>
  </g>
 </g>
</svg>
