<?xml version="1.0" encoding="UTF-8"?>
<!DOCTYPE svg PUBLIC "-//W3C//DTD SVG 1.1//EN" "http://www.w3.org/Graphics/SVG/1.1/DTD/svg11.dtd">
<!-- Creator: CorelDRAW -->
<svg xmlns="http://www.w3.org/2000/svg" xml:space="preserve" width="99.1813mm" height="30.3268mm" version="1.1" style="shape-rendering:geometricPrecision; text-rendering:geometricPrecision; image-rendering:optimizeQuality; fill-rule:evenodd; clip-rule:evenodd"
viewBox="0 0 1011.24 309.21"
 xmlns:xlink="http://www.w3.org/1999/xlink"
 xmlns:xodm="http://www.corel.com/coreldraw/odm/2003">
 <defs>
  <style type="text/css">
   <![CDATA[
    .fil1 {fill:#FEFEFE;fill-rule:nonzero}
    .fil0 {fill:#FEFEFE;fill-rule:nonzero}
    .fil2 {fill:#E57C56;fill-rule:nonzero}
    .fil3 {fill:white;fill-rule:nonzero}
   ]]>
  </style>
 </defs>
 <g id="Capa_x0020_1">
  <metadata id="CorelCorpID_0Corel-Layer"/>
  <path class="fil0" d="M138.14 61.47l-49.59 0 0 141.9 -39.25 0 0 -141.9 -49.3 0 0 -31.85 138.14 0 0 31.85zm108.82 90.78l-80.94 0c1.28,17.99 12.66,27.01 34.04,27.01 13.65,0 25.64,-3.23 35.98,-9.68l0 27.63c-11.46,6.12 -26.35,9.18 -44.71,9.18 -20.02,0 -35.57,-5.54 -46.65,-16.67 -11.04,-11.08 -16.58,-26.59 -16.58,-46.45 0,-20.6 5.96,-36.93 17.95,-48.97 11.95,-12.04 26.63,-18.03 44.09,-18.03 18.07,0 32.09,5.38 41.98,16.09 9.88,10.75 14.85,25.35 14.85,43.76l0 16.13zm-35.49 -23.53c0,-17.74 -7.2,-26.63 -21.59,-26.63 -6.12,0 -11.46,2.52 -15.92,7.61 -4.51,5.09 -7.2,11.46 -8.19,19.02l45.7 0zm50.13 71.39l0 -31.02c6.33,3.81 12.61,6.62 18.86,8.48 6.24,1.86 12.16,2.77 17.74,2.77 6.78,0 12.16,-0.91 16.05,-2.77 3.93,-1.86 5.87,-4.67 5.87,-8.48 0,-2.44 -0.87,-4.47 -2.65,-6.08 -1.78,-1.61 -4.05,-3.02 -6.86,-4.22 -2.77,-1.2 -5.83,-2.32 -9.14,-3.27 -3.31,-0.99 -6.49,-2.07 -9.55,-3.27 -4.92,-1.86 -9.26,-3.89 -13.03,-6 -3.76,-2.15 -6.91,-4.63 -9.47,-7.49 -2.52,-2.81 -4.47,-6.08 -5.79,-9.8 -1.32,-3.72 -2.03,-8.11 -2.03,-13.19 0,-6.95 1.53,-12.95 4.55,-17.95 3.02,-5 7.07,-9.1 12.12,-12.28 5.05,-3.18 10.84,-5.54 17.33,-7.03 6.49,-1.49 13.28,-2.23 20.31,-2.23 5.5,0 11.04,0.41 16.71,1.28 5.67,0.83 11.25,2.07 16.75,3.68l0 29.57c-4.88,-2.85 -10.05,-4.96 -15.59,-6.37 -5.54,-1.41 -10.96,-2.11 -16.3,-2.11 -2.52,0 -4.88,0.21 -7.07,0.66 -2.23,0.41 -4.22,1.08 -5.91,1.94 -1.7,0.83 -3.02,1.9 -3.97,3.27 -0.99,1.32 -1.45,2.85 -1.45,4.55 0,2.23 0.7,4.18 2.15,5.79 1.49,1.61 3.35,3.02 5.71,4.18 2.36,1.2 4.96,2.23 7.82,3.14 2.85,0.95 5.71,1.9 8.56,2.85 5.09,1.78 9.68,3.72 13.81,5.83 4.09,2.11 7.65,4.55 10.59,7.4 2.94,2.81 5.21,6.12 6.78,9.93 1.57,3.81 2.36,8.31 2.36,13.57 0,7.36 -1.57,13.65 -4.8,18.86 -3.18,5.21 -7.4,9.43 -12.7,12.7 -5.29,3.27 -11.42,5.67 -18.32,7.16 -6.91,1.49 -14.06,2.23 -21.51,2.23 -13.65,0 -26.26,-2.11 -37.93,-6.29zm192.32 1.82c-5.67,2.98 -14.19,4.47 -25.56,4.47 -26.97,0 -40.49,-14.02 -40.49,-42.02l0 -56.83 -20.1 0 0 -28.25 20.1 0 0 -26.76 38.17 -10.92 0 37.68 27.88 0 0 28.25 -27.88 0 0 50.17c0,12.9 5.13,19.36 15.39,19.36 4.05,0 8.23,-1.16 12.49,-3.52l0 28.37zm40.95 -142.27c-6.45,0 -11.75,-1.9 -15.84,-5.75 -4.14,-3.85 -6.2,-8.52 -6.2,-14.1 0,-5.75 2.07,-10.42 6.2,-14.06 4.09,-3.64 9.39,-5.46 15.84,-5.46 6.58,0 11.87,1.82 15.96,5.46 4.05,3.64 6.12,8.31 6.12,14.06 0,5.79 -2.07,10.59 -6.12,14.31 -4.09,3.68 -9.39,5.54 -15.96,5.54zm18.9 143.72l-38.26 0 0 -124.08 38.26 0 0 124.08z"/>
  <path class="fil0" d="M870.68 69.1c15.76,12.11 25.94,31.2 25.94,52.65 0,36.72 -29.79,66.51 -66.51,66.51 -24.75,0 -46.33,-13.51 -57.78,-33.58 -3.34,16.03 -8.85,31.46 -16.06,46.2 19.32,18.08 45.3,29.14 73.83,29.14 59.79,0 108.27,-48.49 108.27,-108.27 0,-19.13 -4.97,-37.09 -13.7,-52.65l-54 0z"/>
  <path class="fil1" d="M1011.24 34.4l-41.57 -34.4 0 13.52 -139.39 0 -0.01 0 -0.01 0 -0.01 0 -0.14 -0.01c-30,0 -57.13,12.22 -76.73,31.94 8.75,12.99 15.26,27.6 19,43.3 11.46,-20 33.01,-33.48 57.73,-33.48 0,0 0.01,0 0.01,0l0 0.01 0.17 0 3.95 0 135.44 0 0 13.52 41.57 -34.4z"/>
  <path class="fil2" d="M759.63 119.6c0,-62.22 -50.44,-112.66 -112.66,-112.66 -62.22,0 -112.66,50.44 -112.66,112.66 0,63.72 53.28,116.35 119.58,112.31 -4.47,21.61 -15.52,42.88 -26.24,59.53 -4.89,7.6 4.07,16.43 11.58,11.4 63.07,-42.22 120.41,-108.25 120.41,-183.24z"/>
  <path class="fil3" d="M635.68 115.55c0,-15.97 -12.95,-28.92 -28.92,-28.92 -15.97,0 -28.92,12.95 -28.92,28.92 0,16.35 13.67,29.86 30.69,28.82 -1.15,5.55 -3.98,11.01 -6.74,15.28 -1.26,1.95 1.04,4.22 2.97,2.93 16.19,-10.84 30.9,-27.78 30.9,-47.03z"/>
  <path class="fil3" d="M713.33 115.55c0,-15.97 -12.94,-28.92 -28.92,-28.92 -15.97,0 -28.91,12.95 -28.91,28.92 0,16.35 13.67,29.86 30.69,28.82 -1.15,5.55 -3.98,11.01 -6.74,15.28 -1.26,1.95 1.04,4.22 2.97,2.93 16.19,-10.84 30.9,-27.78 30.9,-47.03z"/>
  <path class="fil1" d="M72.05 296.49l-6.66 0 3.47 -16.52 -17.78 0 -3.47 16.52 -6.72 0 8.17 -38.55 6.73 0 -3.47 16.13 17.8 0 3.47 -16.13 6.67 0 -8.21 38.55zm23.48 -36.84c0,1.08 -0.39,1.97 -1.16,2.68 -0.77,0.71 -1.72,1.06 -2.83,1.06 -1.07,0 -1.98,-0.32 -2.73,-0.97 -0.74,-0.64 -1.12,-1.5 -1.12,-2.55 0,-1.09 0.39,-1.98 1.18,-2.67 0.79,-0.68 1.74,-1.02 2.85,-1.02 1.04,0 1.93,0.33 2.67,0.98 0.74,0.65 1.12,1.49 1.12,2.49zm-7.31 37.28c-1.97,0 -3.47,-0.5 -4.51,-1.5 -1.03,-0.99 -1.54,-2.41 -1.54,-4.26 0,-0.93 0.09,-1.85 0.29,-2.74l4 -19.49 6.54 0 -3.65 17.34c-0.38,1.8 -0.57,2.95 -0.57,3.47 0,1.37 0.78,2.05 2.34,2.05 0.92,0 1.74,-0.15 2.45,-0.43l-1.02 4.94c-1.54,0.41 -2.99,0.61 -4.33,0.61zm28.16 -22.11c-0.79,-0.47 -1.73,-0.87 -2.81,-1.22 -1.08,-0.34 -2.17,-0.51 -3.24,-0.51 -1.5,0 -2.63,0.32 -3.38,0.95 -0.74,0.64 -1.12,1.47 -1.12,2.48 0,0.89 0.31,1.63 0.92,2.23 0.61,0.59 1.49,1.19 2.63,1.83 2.33,1.3 3.92,2.55 4.77,3.73 0.85,1.18 1.28,2.57 1.28,4.16 0,1.74 -0.45,3.26 -1.36,4.54 -0.9,1.29 -2.22,2.3 -3.97,3.04 -1.73,0.73 -3.86,1.1 -6.37,1.1 -1.37,0 -2.81,-0.16 -4.33,-0.46 -1.52,-0.3 -2.69,-0.67 -3.5,-1.1l1.08 -5.31c0.98,0.6 2.15,1.1 3.51,1.51 1.35,0.41 2.65,0.62 3.91,0.62 1.58,0 2.75,-0.29 3.52,-0.89 0.77,-0.6 1.16,-1.41 1.16,-2.46 0,-0.81 -0.27,-1.5 -0.8,-2.09 -0.52,-0.6 -1.55,-1.3 -3.08,-2.13 -2.03,-1.09 -3.5,-2.25 -4.42,-3.46 -0.93,-1.22 -1.39,-2.65 -1.39,-4.3 0,-1.68 0.44,-3.19 1.3,-4.52 0.87,-1.33 2.13,-2.38 3.76,-3.13 1.64,-0.75 3.6,-1.13 5.86,-1.13 1.34,0 2.65,0.12 3.94,0.37 1.28,0.24 2.36,0.54 3.24,0.9l-1.13 5.26zm21.94 -0.85l-6.69 0 -2.63 12.43c-0.32,1.55 -0.49,2.6 -0.49,3.14 0,0.82 0.19,1.41 0.57,1.78 0.38,0.37 0.99,0.55 1.85,0.55 0.83,0 2.07,-0.32 3.76,-0.96l-1.07 5.08c-1.79,0.71 -3.57,1.06 -5.32,1.06 -4.25,0 -6.38,-2.06 -6.38,-6.2 0,-1.04 0.19,-2.41 0.57,-4.08l2.69 -12.79 -4.41 0 1.18 -5.01 4.28 0 1.42 -6.57 6.84 -1.8 -1.75 8.37 6.75 0 -1.16 5.01zm28.19 5.56c0,3.33 -0.67,6.37 -2,9.11 -1.34,2.75 -3.19,4.86 -5.54,6.32 -2.36,1.46 -5.08,2.19 -8.16,2.19 -3.46,0 -6.18,-0.99 -8.16,-2.98 -1.98,-1.99 -2.97,-4.74 -2.97,-8.25 0,-3.33 0.67,-6.35 2,-9.08 1.34,-2.73 3.19,-4.83 5.53,-6.32 2.35,-1.49 5.08,-2.23 8.18,-2.23 3.41,0 6.11,1 8.12,2.99 2.01,2 3.01,4.75 3.01,8.24zm-6.56 0.16c0,-1.92 -0.44,-3.44 -1.33,-4.57 -0.89,-1.13 -2.12,-1.7 -3.7,-1.7 -1.63,0 -3.11,0.56 -4.43,1.68 -1.33,1.12 -2.37,2.64 -3.13,4.56 -0.76,1.92 -1.15,3.97 -1.15,6.16 0,1.94 0.45,3.46 1.36,4.56 0.91,1.1 2.14,1.65 3.7,1.65 1.66,0 3.17,-0.56 4.51,-1.68 1.33,-1.12 2.36,-2.64 3.09,-4.56 0.72,-1.92 1.08,-3.96 1.08,-6.1zm29.9 -4.47c-1.09,-0.58 -2.15,-0.86 -3.18,-0.86 -1.86,0 -3.56,0.95 -5.09,2.83 -1.53,1.88 -2.63,4.39 -3.3,7.53l-2.5 11.79 -6.51 0 3.82 -17.91c0.91,-4.47 1.45,-7.67 1.62,-9.63l6.4 0c-0.18,1.74 -0.43,3.68 -0.75,5.82l0.1 0c1.13,-2.05 2.32,-3.63 3.57,-4.77 1.24,-1.14 2.7,-1.71 4.37,-1.71 0.68,0 1.59,0.14 2.72,0.4l-1.27 6.52zm15.14 -15.57c0,1.08 -0.39,1.97 -1.16,2.68 -0.77,0.71 -1.72,1.06 -2.83,1.06 -1.07,0 -1.98,-0.32 -2.73,-0.97 -0.74,-0.64 -1.12,-1.5 -1.12,-2.55 0,-1.09 0.39,-1.98 1.18,-2.67 0.79,-0.68 1.74,-1.02 2.85,-1.02 1.04,0 1.93,0.33 2.67,0.98 0.74,0.65 1.12,1.49 1.12,2.49zm-7.31 37.28c-1.97,0 -3.47,-0.5 -4.51,-1.5 -1.03,-0.99 -1.54,-2.41 -1.54,-4.26 0,-0.93 0.09,-1.85 0.29,-2.74l4 -19.49 6.54 0 -3.65 17.34c-0.38,1.8 -0.57,2.95 -0.57,3.47 0,1.37 0.78,2.05 2.34,2.05 0.92,0 1.74,-0.15 2.45,-0.43l-1.02 4.94c-1.54,0.41 -2.99,0.61 -4.33,0.61zm32.56 -0.44l-6.58 0c0,-0.45 0.05,-1.27 0.16,-2.46 0.11,-1.19 0.22,-2.12 0.32,-2.76l-0.1 0c-1.14,1.64 -2.11,2.84 -2.92,3.59 -0.82,0.74 -1.7,1.31 -2.65,1.71 -0.95,0.39 -2.03,0.59 -3.23,0.59 -2.62,0 -4.64,-0.93 -6.1,-2.77 -1.45,-1.85 -2.18,-4.4 -2.18,-7.66 0,-3.33 0.79,-6.5 2.35,-9.51 1.57,-3.01 3.67,-5.25 6.3,-6.72 2.63,-1.47 5.69,-2.2 9.19,-2.2 2.88,0 6.32,0.43 10.3,1.29l-3.79 17.95c-0.28,1.27 -0.51,2.84 -0.73,4.69 -0.21,1.85 -0.32,3.28 -0.32,4.26zm-2.47 -22.95c-1.11,-0.27 -2.34,-0.4 -3.69,-0.4 -2.04,0 -3.85,0.53 -5.4,1.6 -1.56,1.07 -2.82,2.69 -3.77,4.86 -0.95,2.17 -1.42,4.43 -1.42,6.8 0,1.8 0.35,3.18 1.04,4.16 0.69,0.98 1.7,1.47 3.02,1.47 1.94,0 3.68,-1.01 5.23,-3.04 1.55,-2.03 2.69,-4.71 3.41,-8.05l1.59 -7.4zm29.31 1.28c-0.79,-0.47 -1.73,-0.87 -2.81,-1.22 -1.08,-0.34 -2.17,-0.51 -3.24,-0.51 -1.5,0 -2.63,0.32 -3.38,0.95 -0.74,0.64 -1.12,1.47 -1.12,2.48 0,0.89 0.31,1.63 0.92,2.23 0.61,0.59 1.49,1.19 2.63,1.83 2.33,1.3 3.92,2.55 4.77,3.73 0.85,1.18 1.28,2.57 1.28,4.16 0,1.74 -0.45,3.26 -1.36,4.54 -0.9,1.29 -2.22,2.3 -3.97,3.04 -1.73,0.73 -3.86,1.1 -6.37,1.1 -1.37,0 -2.81,-0.16 -4.33,-0.46 -1.52,-0.3 -2.69,-0.67 -3.5,-1.1l1.08 -5.31c0.98,0.6 2.15,1.1 3.51,1.51 1.35,0.41 2.65,0.62 3.91,0.62 1.58,0 2.75,-0.29 3.52,-0.89 0.77,-0.6 1.16,-1.41 1.16,-2.46 0,-0.81 -0.27,-1.5 -0.8,-2.09 -0.52,-0.6 -1.55,-1.3 -3.08,-2.13 -2.03,-1.09 -3.5,-2.25 -4.42,-3.46 -0.93,-1.22 -1.39,-2.65 -1.39,-4.3 0,-1.68 0.44,-3.19 1.3,-4.52 0.87,-1.33 2.13,-2.38 3.76,-3.13 1.64,-0.75 3.6,-1.13 5.86,-1.13 1.34,0 2.65,0.12 3.94,0.37 1.28,0.24 2.36,0.54 3.24,0.9l-1.13 5.26zm38.96 34.39l-6.48 0 2.55 -12.13c0.38,-1.71 0.81,-3.49 1.28,-5.35l-0.1 0c-2.44,3.62 -5.32,5.42 -8.66,5.42 -2.62,0 -4.65,-0.91 -6.13,-2.73 -1.47,-1.82 -2.2,-4.39 -2.2,-7.7 0,-3.41 0.79,-6.59 2.35,-9.56 1.57,-2.97 3.67,-5.19 6.3,-6.66 2.63,-1.47 5.63,-2.2 8.99,-2.2 3.41,0 6.89,0.5 10.46,1.48l-8.36 39.44zm1.05 -35.56c-1.24,-0.34 -2.49,-0.51 -3.74,-0.51 -1.99,0 -3.77,0.54 -5.32,1.62 -1.56,1.09 -2.82,2.71 -3.77,4.86 -0.95,2.15 -1.42,4.37 -1.42,6.67 0,1.9 0.36,3.33 1.06,4.29 0.71,0.96 1.73,1.44 3.05,1.44 1.9,0 3.63,-0.98 5.17,-2.95 1.54,-1.96 2.67,-4.59 3.39,-7.87l1.59 -7.55zm33.91 22.84l-6.45 0 0.84 -5.85 -0.11 0c-1.45,2.05 -3.07,3.64 -4.86,4.79 -1.8,1.15 -3.63,1.72 -5.49,1.72 -2.28,0 -4.02,-0.65 -5.21,-1.95 -1.2,-1.3 -1.81,-3.13 -1.81,-5.47 0,-0.88 0.29,-2.63 0.84,-5.27l3.29 -15.51 6.5 0 -3.36 15.81c-0.38,2.01 -0.56,3.21 -0.56,3.61 0,1.07 0.27,1.92 0.81,2.55 0.53,0.62 1.34,0.94 2.41,0.94 1.24,0 2.51,-0.46 3.81,-1.37 1.29,-0.92 2.45,-2.15 3.45,-3.7 1.01,-1.54 1.67,-3.09 1.99,-4.63l2.83 -13.22 6.51 0 -3.96 18.5c-0.7,3.33 -1.18,6.34 -1.45,9.03zm33.53 -20.74c0,3.31 -1.54,5.76 -4.62,7.32 -3.08,1.57 -7.77,2.39 -14.04,2.46l-0.06 0.29 0 0.54c0,1.86 0.56,3.3 1.67,4.34 1.11,1.03 2.66,1.54 4.65,1.54 1.36,0 2.82,-0.25 4.37,-0.74 1.55,-0.5 2.97,-1.13 4.26,-1.9l-1.07 5.34c-2.71,1.47 -5.69,2.2 -8.95,2.2 -3.57,0 -6.35,-0.99 -8.35,-2.98 -2,-1.99 -3,-4.79 -3,-8.41 0,-3.12 0.68,-6.03 2.05,-8.75 1.36,-2.72 3.26,-4.85 5.7,-6.4 2.44,-1.55 5.11,-2.32 8.01,-2.32 2.88,0 5.17,0.68 6.86,2.05 1.69,1.36 2.52,3.16 2.52,5.41zm-6.29 0.16c0,-0.89 -0.33,-1.61 -0.98,-2.14 -0.65,-0.52 -1.56,-0.79 -2.71,-0.79 -1.9,0 -3.62,0.78 -5.16,2.34 -1.54,1.56 -2.55,3.48 -3.04,5.76 7.92,0 11.89,-1.73 11.89,-5.17zm45.87 -0.43c-0.68,-0.58 -1.53,-1.06 -2.54,-1.46 -1.01,-0.39 -2.13,-0.6 -3.35,-0.6 -1.7,0 -3.26,0.5 -4.66,1.5 -1.4,1.01 -2.56,2.45 -3.45,4.34 -0.9,1.9 -1.35,3.88 -1.35,5.97 0,2.22 0.5,3.91 1.5,5.07 0.99,1.16 2.41,1.73 4.26,1.73 1.11,0 2.3,-0.23 3.53,-0.68 1.25,-0.45 2.37,-0.99 3.35,-1.64l-1.13 5.45c-2.54,1.33 -5.08,1.99 -7.58,1.99 -3.27,0 -5.82,-1 -7.66,-2.99 -1.84,-2 -2.77,-4.76 -2.77,-8.3 0,-3.19 0.69,-6.14 2.07,-8.88 1.38,-2.74 3.3,-4.86 5.76,-6.4 2.47,-1.53 5.26,-2.29 8.38,-2.29 1.3,0 2.61,0.16 3.9,0.47 1.28,0.31 2.29,0.72 3.01,1.19l-1.27 5.52zm29.17 4.06c0,3.33 -0.67,6.37 -2,9.11 -1.34,2.75 -3.19,4.86 -5.54,6.32 -2.36,1.46 -5.08,2.19 -8.16,2.19 -3.46,0 -6.18,-0.99 -8.16,-2.98 -1.98,-1.99 -2.97,-4.74 -2.97,-8.25 0,-3.33 0.67,-6.35 2,-9.08 1.34,-2.73 3.19,-4.83 5.53,-6.32 2.35,-1.49 5.08,-2.23 8.18,-2.23 3.41,0 6.11,1 8.12,2.99 2.01,2 3.01,4.75 3.01,8.24zm-6.56 0.16c0,-1.92 -0.44,-3.44 -1.33,-4.57 -0.89,-1.13 -2.12,-1.7 -3.7,-1.7 -1.63,0 -3.11,0.56 -4.43,1.68 -1.33,1.12 -2.37,2.64 -3.13,4.56 -0.76,1.92 -1.15,3.97 -1.15,6.16 0,1.94 0.45,3.46 1.36,4.56 0.91,1.1 2.14,1.65 3.7,1.65 1.66,0 3.17,-0.56 4.51,-1.68 1.33,-1.12 2.36,-2.64 3.09,-4.56 0.72,-1.92 1.08,-3.96 1.08,-6.1zm37.97 -4c0,0.92 -0.28,2.69 -0.84,5.32l-3.28 15.48 -6.51 0 3.33 -15.92c0.36,-1.92 0.53,-3.09 0.53,-3.52 0,-1.08 -0.28,-1.96 -0.84,-2.63 -0.56,-0.67 -1.37,-1.01 -2.41,-1.01 -1.15,0 -2.37,0.45 -3.67,1.36 -1.3,0.91 -2.45,2.12 -3.45,3.64 -1.01,1.52 -1.67,3.04 -1.99,4.54l-2.88 13.53 -6.56 0 4.18 -19.26c0.64,-3.08 1.12,-5.84 1.42,-8.28l6.34 0c-0.14,1.51 -0.42,3.48 -0.84,5.89l0.11 0.03c1.43,-2.09 3.07,-3.72 4.91,-4.86 1.84,-1.15 3.66,-1.72 5.47,-1.72 2.22,0 3.94,0.63 5.15,1.91 1.21,1.28 1.82,3.1 1.82,5.48zm29.41 0.06c0,3.31 -1.54,5.76 -4.62,7.32 -3.08,1.57 -7.77,2.39 -14.04,2.46l-0.06 0.29 0 0.54c0,1.86 0.56,3.3 1.67,4.34 1.11,1.03 2.66,1.54 4.65,1.54 1.36,0 2.82,-0.25 4.37,-0.74 1.55,-0.5 2.97,-1.13 4.26,-1.9l-1.07 5.34c-2.71,1.47 -5.69,2.2 -8.95,2.2 -3.57,0 -6.35,-0.99 -8.35,-2.98 -2,-1.99 -3,-4.79 -3,-8.41 0,-3.12 0.68,-6.03 2.05,-8.75 1.36,-2.72 3.26,-4.85 5.7,-6.4 2.44,-1.55 5.11,-2.32 8.01,-2.32 2.88,0 5.17,0.68 6.86,2.05 1.69,1.36 2.52,3.16 2.52,5.41zm-6.29 0.16c0,-0.89 -0.33,-1.61 -0.98,-2.14 -0.65,-0.52 -1.56,-0.79 -2.71,-0.79 -1.9,0 -3.62,0.78 -5.16,2.34 -1.54,1.56 -2.55,3.48 -3.04,5.76 7.92,0 11.89,-1.73 11.89,-5.17zm30.74 -0.43c-0.68,-0.58 -1.53,-1.06 -2.54,-1.46 -1.01,-0.39 -2.13,-0.6 -3.35,-0.6 -1.7,0 -3.26,0.5 -4.66,1.5 -1.4,1.01 -2.56,2.45 -3.45,4.34 -0.9,1.9 -1.35,3.88 -1.35,5.97 0,2.22 0.5,3.91 1.5,5.07 0.99,1.16 2.41,1.73 4.26,1.73 1.11,0 2.3,-0.23 3.53,-0.68 1.25,-0.45 2.37,-0.99 3.35,-1.64l-1.13 5.45c-2.54,1.33 -5.08,1.99 -7.58,1.99 -3.27,0 -5.82,-1 -7.66,-2.99 -1.84,-2 -2.77,-4.76 -2.77,-8.3 0,-3.19 0.69,-6.14 2.07,-8.88 1.38,-2.74 3.3,-4.86 5.76,-6.4 2.47,-1.53 5.26,-2.29 8.38,-2.29 1.3,0 2.61,0.16 3.9,0.47 1.28,0.31 2.29,0.72 3.01,1.19l-1.27 5.52zm20.7 -1.5l-6.69 0 -2.63 12.43c-0.32,1.55 -0.49,2.6 -0.49,3.14 0,0.82 0.19,1.41 0.57,1.78 0.38,0.37 0.99,0.55 1.85,0.55 0.83,0 2.07,-0.32 3.76,-0.96l-1.07 5.08c-1.79,0.71 -3.57,1.06 -5.32,1.06 -4.25,0 -6.38,-2.06 -6.38,-6.2 0,-1.04 0.19,-2.41 0.57,-4.08l2.69 -12.79 -4.41 0 1.18 -5.01 4.28 0 1.42 -6.57 6.84 -1.8 -1.75 8.37 6.75 0 -1.16 5.01zm24.4 22.52l-6.58 0c0,-0.45 0.05,-1.27 0.16,-2.46 0.11,-1.19 0.22,-2.12 0.32,-2.76l-0.1 0c-1.14,1.64 -2.11,2.84 -2.92,3.59 -0.82,0.74 -1.7,1.31 -2.65,1.71 -0.95,0.39 -2.03,0.59 -3.23,0.59 -2.62,0 -4.64,-0.93 -6.1,-2.77 -1.45,-1.85 -2.18,-4.4 -2.18,-7.66 0,-3.33 0.79,-6.5 2.35,-9.51 1.57,-3.01 3.67,-5.25 6.3,-6.72 2.63,-1.47 5.69,-2.2 9.19,-2.2 2.88,0 6.32,0.43 10.3,1.29l-3.79 17.95c-0.28,1.27 -0.51,2.84 -0.73,4.69 -0.21,1.85 -0.32,3.28 -0.32,4.26zm-2.47 -22.95c-1.11,-0.27 -2.34,-0.4 -3.69,-0.4 -2.04,0 -3.85,0.53 -5.4,1.6 -1.56,1.07 -2.82,2.69 -3.77,4.86 -0.95,2.17 -1.42,4.43 -1.42,6.8 0,1.8 0.35,3.18 1.04,4.16 0.69,0.98 1.7,1.47 3.02,1.47 1.94,0 3.68,-1.01 5.23,-3.04 1.55,-2.03 2.69,-4.71 3.41,-8.05l1.59 -7.4zm38.1 2.14c0,0.92 -0.28,2.69 -0.84,5.32l-3.28 15.48 -6.51 0 3.33 -15.92c0.36,-1.92 0.53,-3.09 0.53,-3.52 0,-1.08 -0.28,-1.96 -0.84,-2.63 -0.56,-0.67 -1.37,-1.01 -2.41,-1.01 -1.15,0 -2.37,0.45 -3.67,1.36 -1.3,0.91 -2.45,2.12 -3.45,3.64 -1.01,1.52 -1.67,3.04 -1.99,4.54l-2.88 13.53 -6.56 0 4.18 -19.26c0.64,-3.08 1.12,-5.84 1.42,-8.28l6.34 0c-0.14,1.51 -0.42,3.48 -0.84,5.89l0.11 0.03c1.43,-2.09 3.07,-3.72 4.91,-4.86 1.84,-1.15 3.66,-1.72 5.47,-1.72 2.22,0 3.94,0.63 5.15,1.91 1.21,1.28 1.82,3.1 1.82,5.48z"/>
 </g>
</svg>
