<?xml version="1.0" encoding="UTF-8"?>
<!DOCTYPE svg PUBLIC "-//W3C//DTD SVG 1.1//EN" "http://www.w3.org/Graphics/SVG/1.1/DTD/svg11.dtd">
<!-- Creator: CorelDRAW -->
<svg xmlns="http://www.w3.org/2000/svg" xml:space="preserve" width="150mm" height="45.1405mm" version="1.1" style="shape-rendering:geometricPrecision; text-rendering:geometricPrecision; image-rendering:optimizeQuality; fill-rule:evenodd; clip-rule:evenodd"
viewBox="0 0 3039.41 914.67"
 xmlns:xlink="http://www.w3.org/1999/xlink"
 xmlns:xodm="http://www.corel.com/coreldraw/odm/2003">
 <defs>
  <style type="text/css">
   <![CDATA[
    .fil0 {fill:#2B628C;fill-rule:nonzero}
    .fil1 {fill:#2B628C;fill-rule:nonzero}
    .fil2 {fill:#E57C56;fill-rule:nonzero}
    .fil3 {fill:white;fill-rule:nonzero}
   ]]>
  </style>
 </defs>
 <g id="Capa_x0020_1">
  <metadata id="CorelCorpID_0Corel-Layer"/>
  <path class="fil0" d="M415.19 184.77l-149.05 0 0 426.51 -117.97 0 0 -426.51 -148.18 0 0 -95.72 415.19 0 0 95.72zm327.06 272.86l-243.27 0c3.85,54.08 38.04,81.18 102.31,81.18 41.02,0 77.07,-9.7 108.15,-29.09l0 83.04c-34.43,18.4 -79.18,27.6 -134.38,27.6 -60.17,0 -106.91,-16.66 -140.22,-50.1 -33.19,-33.31 -49.85,-79.93 -49.85,-139.6 0,-61.91 17.9,-111.01 53.95,-147.18 35.93,-36.17 80.05,-54.2 132.52,-54.2 54.32,0 96.46,16.16 126.17,48.35 29.71,32.32 44.63,76.2 44.63,131.52l0 48.48zm-106.66 -70.73c0,-53.33 -21.63,-80.05 -64.89,-80.05 -18.4,0 -34.43,7.58 -47.86,22.87 -13.55,15.29 -21.63,34.43 -24.61,57.18l137.36 0zm150.66 214.56l0 -93.23c19.02,11.44 37.91,19.89 56.68,25.48 18.77,5.59 36.55,8.33 53.33,8.33 20.39,0 36.55,-2.74 48.23,-8.33 11.81,-5.6 17.65,-14.05 17.65,-25.48 0,-7.33 -2.61,-13.43 -7.96,-18.27 -5.34,-4.85 -12.18,-9.07 -20.63,-12.68 -8.33,-3.61 -17.53,-6.96 -27.47,-9.82 -9.94,-2.98 -19.52,-6.21 -28.71,-9.82 -14.8,-5.59 -27.85,-11.68 -39.16,-18.02 -11.31,-6.47 -20.76,-13.93 -28.47,-22.5 -7.58,-8.45 -13.43,-18.27 -17.4,-29.46 -3.98,-11.19 -6.09,-24.37 -6.09,-39.65 0,-20.88 4.6,-38.91 13.67,-53.95 9.07,-15.04 21.26,-27.35 36.42,-36.92 15.17,-9.57 32.57,-16.66 52.09,-21.13 19.51,-4.47 39.9,-6.71 61.04,-6.71 16.53,0 33.19,1.24 50.22,3.85 17.03,2.49 33.81,6.22 50.34,11.07l0 88.88c-14.67,-8.58 -30.21,-14.92 -46.86,-19.14 -16.66,-4.23 -32.94,-6.34 -48.98,-6.34 -7.58,0 -14.67,0.62 -21.26,1.99 -6.71,1.24 -12.68,3.23 -17.78,5.84 -5.1,2.49 -9.07,5.72 -11.93,9.82 -2.98,3.98 -4.35,8.58 -4.35,13.68 0,6.71 2.11,12.56 6.47,17.4 4.47,4.85 10.07,9.07 17.15,12.56 7.09,3.6 14.92,6.71 23.5,9.44 8.58,2.86 17.16,5.72 25.73,8.58 15.29,5.35 29.09,11.19 41.52,17.53 12.31,6.34 23,13.67 31.82,22.25 8.83,8.45 15.66,18.4 20.39,29.83 4.73,11.44 7.09,24.99 7.09,40.78 0,22.13 -4.73,41.02 -14.42,56.68 -9.57,15.66 -22.25,28.34 -38.16,38.16 -15.91,9.82 -34.31,17.03 -55.07,21.51 -20.76,4.47 -42.27,6.71 -64.64,6.71 -41.02,0 -78.94,-6.34 -113.99,-18.9zm578.04 5.47c-17.03,8.95 -42.64,13.43 -76.82,13.43 -81.05,0 -121.7,-42.14 -121.7,-126.3l0 -170.8 -60.41 0 0 -84.9 60.41 0 0 -80.43 114.74 -32.82 0 113.25 83.78 0 0 84.9 -83.78 0 0 150.79c0,38.78 15.41,58.18 46.24,58.18 12.18,0 24.74,-3.48 37.54,-10.57l0 85.28zm123.07 -427.62c-19.39,0 -35.3,-5.72 -47.61,-17.28 -12.43,-11.56 -18.65,-25.61 -18.65,-42.39 0,-17.28 6.22,-31.33 18.65,-42.27 12.31,-10.94 28.22,-16.41 47.61,-16.41 19.77,0 35.68,5.47 47.98,16.41 12.18,10.94 18.4,24.99 18.4,42.27 0,17.4 -6.22,31.82 -18.4,43.01 -12.31,11.07 -28.22,16.66 -47.98,16.66zm56.81 431.98l-114.99 0 0 -372.93 114.99 0 0 372.93z"/>
  <path class="fil1" d="M2616.94 207.7c47.38,36.41 77.95,93.77 77.95,158.24 0,110.37 -89.54,199.92 -199.92,199.92 -74.39,0 -139.24,-40.62 -173.66,-100.94 -10.03,48.17 -26.59,94.56 -48.26,138.86 58.05,54.35 136.14,87.59 221.92,87.59 179.71,0 325.43,-145.73 325.43,-325.43 0,-57.49 -14.93,-111.48 -41.17,-158.24l-162.3 0z"/>
  <path class="fil1" d="M3039.41 103.4l-124.95 -103.4 0 40.64 -418.97 0 -0.03 0 -0.03 0 -0.03 0 -0.42 -0.02c-90.15,0 -171.72,36.72 -230.63,95.99 26.31,39.03 45.88,82.97 57.1,130.14 34.44,-60.1 99.23,-100.62 173.52,-100.62 0.01,0 0.02,0 0.03,0l0 0.02 0.5 0 11.87 0 407.09 0 0 40.64 124.95 -103.4z"/>
  <path class="fil2" d="M2283.16 359.47c0,-187.01 -151.61,-338.62 -338.62,-338.62 -187.01,0 -338.62,151.61 -338.62,338.62 0,191.53 160.13,349.72 359.41,337.58 -13.43,64.95 -46.65,128.88 -78.87,178.92 -14.71,22.84 12.22,49.38 34.79,34.27 189.57,-126.91 361.91,-325.35 361.91,-550.76z"/>
  <path class="fil3" d="M1910.63 347.29c0,-48 -38.91,-86.91 -86.91,-86.91 -48,0 -86.91,38.91 -86.91,86.91 0,49.15 41.1,89.75 92.25,86.64 -3.45,16.67 -11.97,33.08 -20.24,45.92 -3.78,5.86 3.13,12.67 8.93,8.8 48.65,-32.57 92.89,-83.5 92.89,-141.35z"/>
  <path class="fil3" d="M2144 347.29c0,-48 -38.91,-86.91 -86.91,-86.91 -48,0 -86.91,38.91 -86.91,86.91 0,49.15 41.09,89.75 92.24,86.64 -3.44,16.67 -11.97,33.08 -20.24,45.92 -3.78,5.86 3.13,12.67 8.93,8.8 48.66,-32.57 92.89,-83.5 92.89,-141.35z"/>
 </g>
</svg>
