<?xml version="1.0" encoding="UTF-8"?>
<!DOCTYPE svg PUBLIC "-//W3C//DTD SVG 1.1//EN" "http://www.w3.org/Graphics/SVG/1.1/DTD/svg11.dtd">
<!-- Creator: CorelDRAW -->
<svg xmlns="http://www.w3.org/2000/svg" xml:space="preserve" width="150mm" height="45.8657mm" version="1.1" style="shape-rendering:geometricPrecision; text-rendering:geometricPrecision; image-rendering:optimizeQuality; fill-rule:evenodd; clip-rule:evenodd"
viewBox="0 0 3039.41 929.37"
 xmlns:xlink="http://www.w3.org/1999/xlink"
 xmlns:xodm="http://www.corel.com/coreldraw/odm/2003">
 <defs>
  <style type="text/css">
   <![CDATA[
    .fil0 {fill:#2B628C;fill-rule:nonzero}
    .fil1 {fill:#2B628C;fill-rule:nonzero}
    .fil2 {fill:#E57C56;fill-rule:nonzero}
    .fil3 {fill:white;fill-rule:nonzero}
   ]]>
  </style>
 </defs>
 <g id="Capa_x0020_1">
  <metadata id="CorelCorpID_0Corel-Layer"/>
  <path class="fil0" d="M415.19 184.77l-149.05 0 0 426.51 -117.97 0 0 -426.51 -148.18 0 0 -95.72 415.19 0 0 95.72zm327.06 272.86l-243.27 0c3.85,54.08 38.04,81.18 102.31,81.18 41.02,0 77.07,-9.7 108.15,-29.09l0 83.04c-34.43,18.4 -79.18,27.6 -134.38,27.6 -60.17,0 -106.91,-16.66 -140.22,-50.1 -33.19,-33.31 -49.85,-79.93 -49.85,-139.6 0,-61.91 17.9,-111.01 53.95,-147.18 35.93,-36.17 80.05,-54.2 132.52,-54.2 54.32,0 96.46,16.16 126.17,48.35 29.71,32.32 44.63,76.2 44.63,131.52l0 48.48zm-106.66 -70.73c0,-53.33 -21.63,-80.05 -64.89,-80.05 -18.4,0 -34.43,7.58 -47.86,22.87 -13.55,15.29 -21.63,34.43 -24.61,57.18l137.36 0zm150.66 214.56l0 -93.23c19.02,11.44 37.91,19.89 56.68,25.48 18.77,5.59 36.55,8.33 53.33,8.33 20.39,0 36.55,-2.74 48.23,-8.33 11.81,-5.6 17.65,-14.05 17.65,-25.48 0,-7.33 -2.61,-13.43 -7.96,-18.27 -5.34,-4.85 -12.18,-9.07 -20.63,-12.68 -8.33,-3.61 -17.53,-6.96 -27.47,-9.82 -9.94,-2.98 -19.52,-6.21 -28.71,-9.82 -14.8,-5.59 -27.85,-11.68 -39.16,-18.02 -11.31,-6.47 -20.76,-13.93 -28.47,-22.5 -7.58,-8.45 -13.43,-18.27 -17.4,-29.46 -3.98,-11.19 -6.09,-24.37 -6.09,-39.65 0,-20.88 4.6,-38.91 13.67,-53.95 9.07,-15.04 21.26,-27.35 36.42,-36.92 15.17,-9.57 32.57,-16.66 52.09,-21.13 19.51,-4.47 39.9,-6.71 61.04,-6.71 16.53,0 33.19,1.24 50.22,3.85 17.03,2.49 33.81,6.22 50.34,11.07l0 88.88c-14.67,-8.58 -30.21,-14.92 -46.86,-19.14 -16.66,-4.23 -32.94,-6.34 -48.98,-6.34 -7.58,0 -14.67,0.62 -21.26,1.99 -6.71,1.24 -12.68,3.23 -17.78,5.84 -5.1,2.49 -9.07,5.72 -11.93,9.82 -2.98,3.98 -4.35,8.58 -4.35,13.68 0,6.71 2.11,12.56 6.47,17.4 4.47,4.85 10.07,9.07 17.15,12.56 7.09,3.6 14.92,6.71 23.5,9.44 8.58,2.86 17.16,5.72 25.73,8.58 15.29,5.35 29.09,11.19 41.52,17.53 12.31,6.34 23,13.67 31.82,22.25 8.83,8.45 15.66,18.4 20.39,29.83 4.73,11.44 7.09,24.99 7.09,40.78 0,22.13 -4.73,41.02 -14.42,56.68 -9.57,15.66 -22.25,28.34 -38.16,38.16 -15.91,9.82 -34.31,17.03 -55.07,21.51 -20.76,4.47 -42.27,6.71 -64.64,6.71 -41.02,0 -78.94,-6.34 -113.99,-18.9zm578.04 5.47c-17.03,8.95 -42.64,13.43 -76.82,13.43 -81.05,0 -121.7,-42.14 -121.7,-126.3l0 -170.8 -60.41 0 0 -84.9 60.41 0 0 -80.43 114.74 -32.82 0 113.25 83.78 0 0 84.9 -83.78 0 0 150.79c0,38.78 15.41,58.18 46.24,58.18 12.18,0 24.74,-3.48 37.54,-10.57l0 85.28zm123.07 -427.62c-19.39,0 -35.3,-5.72 -47.61,-17.28 -12.43,-11.56 -18.65,-25.61 -18.65,-42.39 0,-17.28 6.22,-31.33 18.65,-42.27 12.31,-10.94 28.22,-16.41 47.61,-16.41 19.77,0 35.68,5.47 47.98,16.41 12.18,10.94 18.4,24.99 18.4,42.27 0,17.4 -6.22,31.82 -18.4,43.01 -12.31,11.07 -28.22,16.66 -47.98,16.66zm56.81 431.98l-114.99 0 0 -372.93 114.99 0 0 372.93z"/>
  <path class="fil1" d="M2616.94 207.7c47.38,36.41 77.95,93.77 77.95,158.24 0,110.37 -89.54,199.92 -199.92,199.92 -74.39,0 -139.24,-40.62 -173.66,-100.94 -10.03,48.17 -26.59,94.56 -48.26,138.86 58.05,54.35 136.14,87.59 221.92,87.59 179.71,0 325.43,-145.73 325.43,-325.43 0,-57.49 -14.93,-111.48 -41.17,-158.24l-162.3 0z"/>
  <path class="fil1" d="M3039.41 103.4l-124.95 -103.4 0 40.64 -418.97 0 -0.03 0 -0.03 0 -0.03 0 -0.42 -0.02c-90.15,0 -171.72,36.72 -230.63,95.99 26.31,39.03 45.88,82.97 57.1,130.14 34.44,-60.1 99.23,-100.62 173.52,-100.62 0.01,0 0.02,0 0.03,0l0 0.02 0.5 0 11.87 0 407.09 0 0 40.64 124.95 -103.4z"/>
  <path class="fil2" d="M2283.16 359.47c0,-187.01 -151.61,-338.62 -338.62,-338.62 -187.01,0 -338.62,151.61 -338.62,338.62 0,191.53 160.13,349.72 359.41,337.58 -13.43,64.95 -46.65,128.88 -78.87,178.92 -14.71,22.84 12.22,49.38 34.79,34.27 189.57,-126.91 361.91,-325.35 361.91,-550.76z"/>
  <path class="fil3" d="M1910.63 347.29c0,-48 -38.91,-86.91 -86.91,-86.91 -48,0 -86.91,38.91 -86.91,86.91 0,49.15 41.1,89.75 92.25,86.64 -3.45,16.67 -11.97,33.08 -20.24,45.92 -3.78,5.86 3.13,12.67 8.93,8.8 48.65,-32.57 92.89,-83.5 92.89,-141.35z"/>
  <path class="fil3" d="M2144 347.29c0,-48 -38.91,-86.91 -86.91,-86.91 -48,0 -86.91,38.91 -86.91,86.91 0,49.15 41.09,89.75 92.24,86.64 -3.44,16.67 -11.97,33.08 -20.24,45.92 -3.78,5.86 3.13,12.67 8.93,8.8 48.66,-32.57 92.89,-83.5 92.89,-141.35z"/>
  <path class="fil1" d="M216.54 891.13l-20.03 0 10.43 -49.66 -53.43 0 -10.43 49.66 -20.2 0 24.55 -115.86 20.22 0 -10.43 48.5 53.49 0 10.43 -48.5 20.06 0 -24.66 115.86zm70.57 -110.73c0,3.25 -1.16,5.93 -3.48,8.06 -2.32,2.12 -5.16,3.2 -8.49,3.2 -3.23,0 -5.96,-0.97 -8.19,-2.92 -2.23,-1.93 -3.36,-4.5 -3.36,-7.67 0,-3.28 1.19,-5.96 3.56,-8.03 2.37,-2.04 5.24,-3.06 8.58,-3.06 3.12,0 5.79,0.99 8.03,2.95 2.23,1.96 3.36,4.47 3.36,7.48zm-21.98 112.06c-5.93,0 -10.43,-1.49 -13.55,-4.5 -3.09,-2.98 -4.63,-7.26 -4.63,-12.8 0,-2.79 0.28,-5.55 0.88,-8.22l12.03 -58.57 19.64 0 -10.98 52.11c-1.13,5.41 -1.71,8.88 -1.71,10.43 0,4.11 2.34,6.15 7.03,6.15 2.76,0 5.22,-0.44 7.37,-1.3l-3.06 14.84c-4.64,1.24 -8.99,1.85 -13.02,1.85zm84.64 -66.46c-2.37,-1.41 -5.19,-2.62 -8.44,-3.67 -3.25,-1.02 -6.51,-1.54 -9.74,-1.54 -4.52,0 -7.92,0.97 -10.15,2.87 -2.23,1.93 -3.36,4.41 -3.36,7.45 0,2.68 0.94,4.91 2.76,6.7 1.82,1.77 4.47,3.59 7.92,5.49 7.01,3.92 11.78,7.67 14.34,11.23 2.56,3.53 3.83,7.73 3.83,12.5 0,5.24 -1.35,9.79 -4.08,13.66 -2.7,3.89 -6.67,6.93 -11.92,9.13 -5.21,2.21 -11.61,3.31 -19.14,3.31 -4.11,0 -8.44,-0.47 -13.02,-1.38 -4.58,-0.91 -8.08,-2.01 -10.51,-3.31l3.25 -15.97c2.95,1.79 6.46,3.31 10.54,4.55 4.05,1.24 7.97,1.88 11.75,1.88 4.74,0 8.28,-0.88 10.59,-2.68 2.32,-1.79 3.48,-4.25 3.48,-7.39 0,-2.43 -0.8,-4.52 -2.4,-6.29 -1.57,-1.79 -4.66,-3.92 -9.24,-6.4 -6.1,-3.28 -10.51,-6.76 -13.3,-10.4 -2.79,-3.67 -4.16,-7.97 -4.16,-12.94 0,-5.05 1.32,-9.6 3.92,-13.6 2.62,-4 6.4,-7.15 11.31,-9.41 4.94,-2.26 10.81,-3.39 17.6,-3.39 4.03,0 7.97,0.36 11.84,1.1 3.83,0.72 7.09,1.63 9.74,2.7l-3.39 15.81zm65.93 -2.56l-20.11 0 -7.92 37.35c-0.97,4.66 -1.46,7.81 -1.46,9.43 0,2.46 0.58,4.25 1.71,5.35 1.13,1.1 2.98,1.65 5.57,1.65 2.48,0 6.23,-0.97 11.31,-2.9l-3.23 15.28c-5.38,2.12 -10.73,3.17 -16,3.17 -12.77,0 -19.17,-6.21 -19.17,-18.65 0,-3.12 0.58,-7.23 1.71,-12.28l8.08 -38.43 -13.27 0 3.56 -15.06 12.86 0 4.27 -19.75 20.55 -5.41 -5.27 25.16 20.28 0 -3.48 15.06zm84.72 16.72c0,10.01 -2.01,19.15 -6.01,27.39 -4.03,8.28 -9.57,14.59 -16.66,18.98 -7.09,4.39 -15.26,6.59 -24.53,6.59 -10.4,0 -18.57,-2.98 -24.53,-8.97 -5.96,-5.98 -8.94,-14.23 -8.94,-24.8 0,-10.01 2.02,-19.09 6.02,-27.28 4.03,-8.19 9.57,-14.51 16.61,-18.98 7.06,-4.47 15.26,-6.7 24.58,-6.7 10.24,0 18.37,3.01 24.41,8.99 6.04,6.01 9.05,14.26 9.05,24.77zm-19.72 0.47c0,-5.76 -1.32,-10.34 -4,-13.74 -2.68,-3.39 -6.37,-5.1 -11.12,-5.1 -4.88,0 -9.35,1.68 -13.32,5.05 -4,3.37 -7.12,7.95 -9.41,13.71 -2.29,5.77 -3.45,11.95 -3.45,18.51 0,5.82 1.35,10.4 4.08,13.71 2.73,3.31 6.43,4.96 11.12,4.96 4.99,0 9.52,-1.68 13.55,-5.05 4,-3.37 7.09,-7.95 9.3,-13.71 2.18,-5.77 3.25,-11.89 3.25,-18.35zm89.88 -13.43c-3.29,-1.74 -6.46,-2.59 -9.55,-2.59 -5.6,0 -10.7,2.84 -15.31,8.5 -4.61,5.65 -7.92,13.19 -9.9,22.62l-7.5 35.42 -19.56 0 11.48 -53.82c2.73,-13.43 4.36,-23.06 4.85,-28.94l19.23 0c-0.55,5.24 -1.3,11.06 -2.26,17.49l0.3 0c3.39,-6.15 6.98,-10.92 10.73,-14.34 3.73,-3.42 8.11,-5.13 13.13,-5.13 2.04,0 4.77,0.41 8.17,1.21l-3.81 19.59zm45.52 -46.79c0,3.25 -1.16,5.93 -3.48,8.06 -2.32,2.12 -5.16,3.2 -8.49,3.2 -3.23,0 -5.96,-0.97 -8.19,-2.92 -2.23,-1.93 -3.36,-4.5 -3.36,-7.67 0,-3.28 1.19,-5.96 3.56,-8.03 2.37,-2.04 5.24,-3.06 8.58,-3.06 3.12,0 5.79,0.99 8.03,2.95 2.23,1.96 3.36,4.47 3.36,7.48zm-21.98 112.06c-5.93,0 -10.43,-1.49 -13.55,-4.5 -3.09,-2.98 -4.63,-7.26 -4.63,-12.8 0,-2.79 0.28,-5.55 0.88,-8.22l12.03 -58.57 19.64 0 -10.98 52.11c-1.13,5.41 -1.71,8.88 -1.71,10.43 0,4.11 2.34,6.15 7.03,6.15 2.76,0 5.22,-0.44 7.37,-1.3l-3.06 14.84c-4.64,1.24 -8.99,1.85 -13.02,1.85zm97.87 -1.32l-19.78 0c0,-1.35 0.14,-3.81 0.47,-7.39 0.33,-3.59 0.66,-6.37 0.97,-8.3l-0.3 0c-3.42,4.94 -6.34,8.55 -8.77,10.79 -2.45,2.23 -5.1,3.94 -7.97,5.13 -2.84,1.19 -6.1,1.77 -9.71,1.77 -7.86,0 -13.96,-2.79 -18.34,-8.33 -4.36,-5.55 -6.54,-13.21 -6.54,-23.01 0,-10.01 2.37,-19.53 7.06,-28.58 4.72,-9.05 11.04,-15.78 18.92,-20.2 7.89,-4.41 17.11,-6.62 27.61,-6.62 8.66,0 18.98,1.3 30.95,3.89l-11.39 53.96c-0.83,3.81 -1.54,8.53 -2.21,14.1 -0.63,5.57 -0.97,9.85 -0.97,12.8zm-7.42 -68.97c-3.34,-0.8 -7.04,-1.21 -11.09,-1.21 -6.12,0 -11.56,1.6 -16.22,4.8 -4.69,3.23 -8.47,8.08 -11.34,14.62 -2.84,6.51 -4.27,13.32 -4.27,20.44 0,5.41 1.05,9.57 3.12,12.5 2.07,2.95 5.1,4.41 9.08,4.41 5.82,0 11.06,-3.03 15.72,-9.13 4.66,-6.1 8.08,-14.15 10.24,-24.19l4.77 -22.24zm88.09 3.83c-2.37,-1.41 -5.19,-2.62 -8.44,-3.67 -3.25,-1.02 -6.51,-1.54 -9.74,-1.54 -4.52,0 -7.92,0.97 -10.15,2.87 -2.23,1.93 -3.36,4.41 -3.36,7.45 0,2.68 0.94,4.91 2.76,6.7 1.82,1.77 4.47,3.59 7.92,5.49 7.01,3.92 11.78,7.67 14.34,11.23 2.56,3.53 3.83,7.73 3.83,12.5 0,5.24 -1.35,9.79 -4.08,13.66 -2.7,3.89 -6.67,6.93 -11.92,9.13 -5.21,2.21 -11.61,3.31 -19.14,3.31 -4.11,0 -8.44,-0.47 -13.02,-1.38 -4.58,-0.91 -8.08,-2.01 -10.51,-3.31l3.25 -15.97c2.95,1.79 6.46,3.31 10.54,4.55 4.05,1.24 7.97,1.88 11.75,1.88 4.74,0 8.28,-0.88 10.59,-2.68 2.32,-1.79 3.48,-4.25 3.48,-7.39 0,-2.43 -0.8,-4.52 -2.4,-6.29 -1.57,-1.79 -4.66,-3.92 -9.24,-6.4 -6.1,-3.28 -10.51,-6.76 -13.3,-10.4 -2.79,-3.67 -4.16,-7.97 -4.16,-12.94 0,-5.05 1.32,-9.6 3.92,-13.6 2.62,-4 6.4,-7.15 11.31,-9.41 4.94,-2.26 10.81,-3.39 17.6,-3.39 4.03,0 7.97,0.36 11.84,1.1 3.83,0.72 7.09,1.63 9.74,2.7l-3.39 15.81zm117.1 103.37l-19.48 0 7.67 -36.47c1.13,-5.13 2.43,-10.48 3.86,-16.08l-0.3 0c-7.34,10.87 -16,16.3 -26.04,16.3 -7.86,0 -13.99,-2.73 -18.43,-8.19 -4.41,-5.46 -6.62,-13.19 -6.62,-23.15 0,-10.24 2.37,-19.81 7.06,-28.75 4.72,-8.94 11.04,-15.61 18.92,-20.03 7.89,-4.41 16.91,-6.62 27.04,-6.62 10.24,0 20.72,1.49 31.45,4.44l-25.13 118.54zm3.14 -106.87c-3.72,-1.02 -7.48,-1.54 -11.23,-1.54 -5.98,0 -11.34,1.63 -16,4.88 -4.69,3.29 -8.47,8.14 -11.34,14.62 -2.84,6.46 -4.27,13.13 -4.27,20.06 0,5.71 1.08,10.01 3.2,12.88 2.12,2.9 5.19,4.33 9.16,4.33 5.71,0 10.9,-2.95 15.53,-8.86 4.63,-5.9 8.03,-13.79 10.18,-23.67l4.77 -22.7zm101.91 68.64l-19.4 0 2.51 -17.57 -0.33 0c-4.36,6.15 -9.24,10.95 -14.62,14.4 -5.41,3.45 -10.9,5.16 -16.5,5.16 -6.84,0 -12.08,-1.96 -15.67,-5.85 -3.61,-3.92 -5.44,-9.41 -5.44,-16.44 0,-2.65 0.86,-7.92 2.51,-15.84l9.87 -46.62 19.53 0 -10.1 47.53c-1.13,6.04 -1.68,9.66 -1.68,10.84 0,3.23 0.8,5.77 2.43,7.67 1.6,1.88 4.03,2.81 7.26,2.81 3.72,0 7.53,-1.38 11.45,-4.11 3.89,-2.76 7.37,-6.46 10.37,-11.12 3.03,-4.63 5.02,-9.3 5.99,-13.9l8.49 -39.73 19.56 0 -11.89 55.61c-2.1,10.01 -3.56,19.06 -4.36,27.15zm100.77 -62.35c0,9.96 -4.63,17.3 -13.88,22.02 -9.27,4.72 -23.34,7.17 -42.21,7.39l-0.17 0.88 0 1.63c0,5.6 1.68,9.93 5.02,13.05 3.34,3.09 8,4.63 13.99,4.63 4.08,0 8.47,-0.74 13.13,-2.23 4.66,-1.49 8.94,-3.39 12.8,-5.71l-3.23 16.05c-8.14,4.41 -17.1,6.62 -26.9,6.62 -10.73,0 -19.09,-2.98 -25.1,-8.97 -6.01,-5.98 -9.02,-14.4 -9.02,-25.27 0,-9.38 2.04,-18.13 6.15,-26.29 4.08,-8.17 9.79,-14.57 17.13,-19.23 7.34,-4.66 15.37,-6.98 24.08,-6.98 8.66,0 15.53,2.04 20.61,6.15 5.08,4.08 7.59,9.49 7.59,16.25zm-18.9 0.47c0,-2.68 -1,-4.83 -2.95,-6.43 -1.96,-1.57 -4.69,-2.37 -8.14,-2.37 -5.71,0 -10.87,2.34 -15.5,7.03 -4.64,4.69 -7.67,10.46 -9.13,17.3 23.81,0 35.73,-5.19 35.73,-15.53zm137.88 -1.3c-2.04,-1.74 -4.61,-3.2 -7.64,-4.39 -3.04,-1.19 -6.4,-1.79 -10.07,-1.79 -5.1,0 -9.79,1.52 -14.01,4.52 -4.22,3.04 -7.7,7.37 -10.37,13.05 -2.7,5.71 -4.05,11.67 -4.05,17.93 0,6.67 1.49,11.75 4.5,15.23 2.98,3.48 7.26,5.21 12.8,5.21 3.34,0 6.9,-0.69 10.62,-2.04 3.75,-1.35 7.12,-2.98 10.07,-4.94l-3.4 16.39c-7.64,4 -15.26,5.98 -22.78,5.98 -9.82,0 -17.49,-3.01 -23.04,-8.99 -5.54,-6.01 -8.33,-14.32 -8.33,-24.94 0,-9.57 2.07,-18.46 6.24,-26.68 4.14,-8.22 9.93,-14.62 17.32,-19.23 7.42,-4.61 15.81,-6.9 25.19,-6.9 3.92,0 7.84,0.47 11.72,1.41 3.86,0.94 6.9,2.15 9.05,3.59l-3.81 16.58zm87.67 12.19c0,10.01 -2.01,19.15 -6.01,27.39 -4.03,8.28 -9.57,14.59 -16.66,18.98 -7.09,4.39 -15.26,6.59 -24.53,6.59 -10.4,0 -18.57,-2.98 -24.53,-8.97 -5.96,-5.98 -8.94,-14.23 -8.94,-24.8 0,-10.01 2.02,-19.09 6.02,-27.28 4.03,-8.19 9.57,-14.51 16.61,-18.98 7.06,-4.47 15.26,-6.7 24.58,-6.7 10.24,0 18.37,3.01 24.41,8.99 6.04,6.01 9.05,14.26 9.05,24.77zm-19.72 0.47c0,-5.76 -1.32,-10.34 -4,-13.74 -2.68,-3.39 -6.37,-5.1 -11.12,-5.1 -4.88,0 -9.35,1.68 -13.32,5.05 -4,3.37 -7.12,7.95 -9.41,13.71 -2.29,5.77 -3.45,11.95 -3.45,18.51 0,5.82 1.35,10.4 4.08,13.71 2.73,3.31 6.43,4.96 11.12,4.96 4.99,0 9.52,-1.68 13.55,-5.05 4,-3.37 7.09,-7.95 9.3,-13.71 2.18,-5.77 3.25,-11.89 3.25,-18.35zm114.13 -12.03c0,2.76 -0.83,8.08 -2.51,16l-9.85 46.54 -19.56 0 10.01 -47.86c1.08,-5.77 1.6,-9.3 1.6,-10.57 0,-3.25 -0.83,-5.88 -2.54,-7.89 -1.68,-2.01 -4.11,-3.03 -7.23,-3.03 -3.45,0 -7.12,1.35 -11.04,4.08 -3.92,2.73 -7.36,6.37 -10.37,10.95 -3.04,4.58 -5.02,9.13 -5.99,13.66l-8.66 40.66 -19.73 0 12.55 -57.88c1.93,-9.27 3.36,-17.54 4.27,-24.88l19.06 0c-0.41,4.55 -1.27,10.46 -2.51,17.71l0.33 0.08c4.3,-6.29 9.24,-11.17 14.76,-14.62 5.52,-3.45 11.01,-5.16 16.44,-5.16 6.67,0 11.84,1.9 15.48,5.74 3.64,3.84 5.46,9.33 5.46,16.47zm88.39 0.19c0,9.96 -4.63,17.3 -13.88,22.02 -9.27,4.72 -23.34,7.17 -42.21,7.39l-0.17 0.88 0 1.63c0,5.6 1.68,9.93 5.02,13.05 3.34,3.09 8,4.63 13.99,4.63 4.08,0 8.47,-0.74 13.13,-2.23 4.66,-1.49 8.94,-3.39 12.8,-5.71l-3.23 16.05c-8.14,4.41 -17.1,6.62 -26.9,6.62 -10.73,0 -19.09,-2.98 -25.1,-8.97 -6.01,-5.98 -9.02,-14.4 -9.02,-25.27 0,-9.38 2.04,-18.13 6.15,-26.29 4.08,-8.17 9.79,-14.57 17.13,-19.23 7.34,-4.66 15.37,-6.98 24.08,-6.98 8.66,0 15.53,2.04 20.61,6.15 5.08,4.08 7.59,9.49 7.59,16.25zm-18.9 0.47c0,-2.68 -1,-4.83 -2.95,-6.43 -1.96,-1.57 -4.69,-2.37 -8.14,-2.37 -5.71,0 -10.87,2.34 -15.5,7.03 -4.64,4.69 -7.67,10.46 -9.13,17.3 23.81,0 35.73,-5.19 35.73,-15.53zm92.39 -1.3c-2.04,-1.74 -4.61,-3.2 -7.64,-4.39 -3.04,-1.19 -6.4,-1.79 -10.07,-1.79 -5.1,0 -9.79,1.52 -14.01,4.52 -4.22,3.04 -7.7,7.37 -10.37,13.05 -2.7,5.71 -4.05,11.67 -4.05,17.93 0,6.67 1.49,11.75 4.5,15.23 2.98,3.48 7.26,5.21 12.8,5.21 3.34,0 6.9,-0.69 10.62,-2.04 3.75,-1.35 7.12,-2.98 10.07,-4.94l-3.4 16.39c-7.64,4 -15.26,5.98 -22.78,5.98 -9.82,0 -17.49,-3.01 -23.04,-8.99 -5.54,-6.01 -8.33,-14.32 -8.33,-24.94 0,-9.57 2.07,-18.46 6.24,-26.68 4.14,-8.22 9.93,-14.62 17.32,-19.23 7.42,-4.61 15.81,-6.9 25.19,-6.9 3.92,0 7.84,0.47 11.72,1.41 3.86,0.94 6.9,2.15 9.05,3.59l-3.81 16.58zm62.21 -4.52l-20.11 0 -7.92 37.35c-0.97,4.66 -1.46,7.81 -1.46,9.43 0,2.46 0.58,4.25 1.71,5.35 1.13,1.1 2.98,1.65 5.57,1.65 2.48,0 6.23,-0.97 11.31,-2.9l-3.23 15.28c-5.38,2.12 -10.73,3.17 -16,3.17 -12.77,0 -19.17,-6.21 -19.17,-18.65 0,-3.12 0.58,-7.23 1.71,-12.28l8.08 -38.43 -13.27 0 3.56 -15.06 12.86 0 4.27 -19.75 20.55 -5.41 -5.27 25.16 20.28 0 -3.48 15.06zm73.32 67.7l-19.78 0c0,-1.35 0.14,-3.81 0.47,-7.39 0.33,-3.59 0.66,-6.37 0.97,-8.3l-0.3 0c-3.42,4.94 -6.34,8.55 -8.77,10.79 -2.45,2.23 -5.1,3.94 -7.97,5.13 -2.84,1.19 -6.1,1.77 -9.71,1.77 -7.86,0 -13.96,-2.79 -18.34,-8.33 -4.36,-5.55 -6.54,-13.21 -6.54,-23.01 0,-10.01 2.37,-19.53 7.06,-28.58 4.72,-9.05 11.04,-15.78 18.92,-20.2 7.89,-4.41 17.11,-6.62 27.61,-6.62 8.66,0 18.98,1.3 30.95,3.89l-11.39 53.96c-0.83,3.81 -1.54,8.53 -2.21,14.1 -0.63,5.57 -0.97,9.85 -0.97,12.8zm-7.42 -68.97c-3.34,-0.8 -7.04,-1.21 -11.09,-1.21 -6.12,0 -11.56,1.6 -16.22,4.8 -4.69,3.23 -8.47,8.08 -11.34,14.62 -2.84,6.51 -4.27,13.32 -4.27,20.44 0,5.41 1.05,9.57 3.12,12.5 2.07,2.95 5.1,4.41 9.08,4.41 5.82,0 11.06,-3.03 15.72,-9.13 4.66,-6.1 8.08,-14.15 10.24,-24.19l4.77 -22.24zm114.51 6.43c0,2.76 -0.83,8.08 -2.51,16l-9.85 46.54 -19.56 0 10.01 -47.86c1.08,-5.77 1.6,-9.3 1.6,-10.57 0,-3.25 -0.83,-5.88 -2.54,-7.89 -1.68,-2.01 -4.11,-3.03 -7.23,-3.03 -3.45,0 -7.12,1.35 -11.04,4.08 -3.92,2.73 -7.36,6.37 -10.37,10.95 -3.04,4.58 -5.02,9.13 -5.99,13.66l-8.66 40.66 -19.73 0 12.55 -57.88c1.93,-9.27 3.36,-17.54 4.27,-24.88l19.06 0c-0.41,4.55 -1.27,10.46 -2.51,17.71l0.33 0.08c4.3,-6.29 9.24,-11.17 14.76,-14.62 5.52,-3.45 11.01,-5.16 16.44,-5.16 6.67,0 11.84,1.9 15.48,5.74 3.64,3.84 5.46,9.33 5.46,16.47z"/>
 </g>
</svg>
